<mxfile host="Electron" modified="2024-01-22T07:25:48.536Z" agent="Mozilla/5.0 (Windows NT 10.0; Win64; x64) AppleWebKit/537.36 (KHTML, like Gecko) draw.io/22.0.3 Chrome/114.0.5735.289 Electron/25.8.4 Safari/537.36" etag="zX9LqgBnPITBcWH798gu" version="22.0.3" type="device">
  <diagram name="第 1 页" id="QfqWhOk-XqrHHl5_bJlU">
    <mxGraphModel dx="714" dy="418" grid="1" gridSize="10" guides="1" tooltips="1" connect="1" arrows="1" fold="1" page="1" pageScale="1" pageWidth="827" pageHeight="1169" math="0" shadow="0">
      <root>
        <mxCell id="0" />
        <mxCell id="1" parent="0" />
        <mxCell id="wvBiB40hRuxFYVFa9dCo-1" value="&lt;b&gt;EIS datasets&lt;/b&gt;" style="rounded=1;whiteSpace=wrap;html=1;fillColor=#fff2cc;strokeColor=#d6b656;" vertex="1" parent="1">
          <mxGeometry x="285" y="80" width="120" height="40" as="geometry" />
        </mxCell>
        <mxCell id="wvBiB40hRuxFYVFa9dCo-2" value="1358 cycles in total&lt;br&gt;60 samples for each eycle" style="shape=callout;whiteSpace=wrap;html=1;perimeter=calloutPerimeter;" vertex="1" parent="1">
          <mxGeometry x="260" width="170" height="80" as="geometry" />
        </mxCell>
        <mxCell id="wvBiB40hRuxFYVFa9dCo-4" value="model 2" style="rounded=1;whiteSpace=wrap;html=1;" vertex="1" parent="1">
          <mxGeometry x="405" y="160" width="80" height="40" as="geometry" />
        </mxCell>
        <mxCell id="wvBiB40hRuxFYVFa9dCo-5" value="capacity (SOH)" style="rounded=1;whiteSpace=wrap;html=1;fillColor=#dae8fc;strokeColor=#6c8ebf;" vertex="1" parent="1">
          <mxGeometry x="80" y="80" width="120" height="40" as="geometry" />
        </mxCell>
        <mxCell id="wvBiB40hRuxFYVFa9dCo-6" value="RUL" style="rounded=1;whiteSpace=wrap;html=1;fillColor=#dae8fc;strokeColor=#6c8ebf;" vertex="1" parent="1">
          <mxGeometry x="485" y="80" width="120" height="40" as="geometry" />
        </mxCell>
        <mxCell id="wvBiB40hRuxFYVFa9dCo-8" value="" style="endArrow=classic;html=1;rounded=0;" edge="1" parent="1" source="wvBiB40hRuxFYVFa9dCo-1" target="wvBiB40hRuxFYVFa9dCo-4">
          <mxGeometry width="50" height="50" relative="1" as="geometry">
            <mxPoint x="295" y="230" as="sourcePoint" />
            <mxPoint x="345" y="180" as="targetPoint" />
          </mxGeometry>
        </mxCell>
        <mxCell id="wvBiB40hRuxFYVFa9dCo-9" value="model 1" style="rounded=1;whiteSpace=wrap;html=1;" vertex="1" parent="1">
          <mxGeometry x="200" y="160" width="80" height="40" as="geometry" />
        </mxCell>
        <mxCell id="wvBiB40hRuxFYVFa9dCo-10" value="" style="endArrow=classic;html=1;rounded=0;" edge="1" parent="1" source="wvBiB40hRuxFYVFa9dCo-6" target="wvBiB40hRuxFYVFa9dCo-4">
          <mxGeometry width="50" height="50" relative="1" as="geometry">
            <mxPoint x="350" y="270" as="sourcePoint" />
            <mxPoint x="400" y="220" as="targetPoint" />
          </mxGeometry>
        </mxCell>
        <mxCell id="wvBiB40hRuxFYVFa9dCo-11" value="" style="endArrow=classic;html=1;rounded=0;" edge="1" parent="1" source="wvBiB40hRuxFYVFa9dCo-5" target="wvBiB40hRuxFYVFa9dCo-9">
          <mxGeometry width="50" height="50" relative="1" as="geometry">
            <mxPoint x="170" y="190" as="sourcePoint" />
            <mxPoint x="220" y="140" as="targetPoint" />
          </mxGeometry>
        </mxCell>
        <mxCell id="wvBiB40hRuxFYVFa9dCo-12" value="" style="endArrow=classic;html=1;rounded=0;" edge="1" parent="1" source="wvBiB40hRuxFYVFa9dCo-1" target="wvBiB40hRuxFYVFa9dCo-9">
          <mxGeometry width="50" height="50" relative="1" as="geometry">
            <mxPoint x="110" y="240" as="sourcePoint" />
            <mxPoint x="160" y="190" as="targetPoint" />
          </mxGeometry>
        </mxCell>
        <mxCell id="wvBiB40hRuxFYVFa9dCo-14" value="13 cycles in total&lt;br&gt;33-100 samples for each eycle" style="shape=callout;whiteSpace=wrap;html=1;perimeter=calloutPerimeter;" vertex="1" parent="1">
          <mxGeometry x="640" width="170" height="80" as="geometry" />
        </mxCell>
        <mxCell id="wvBiB40hRuxFYVFa9dCo-15" value="&lt;b&gt;Our EIS datasets&lt;/b&gt;" style="rounded=1;whiteSpace=wrap;html=1;fillColor=#fff2cc;strokeColor=#d6b656;" vertex="1" parent="1">
          <mxGeometry x="665" y="80" width="120" height="40" as="geometry" />
        </mxCell>
        <mxCell id="wvBiB40hRuxFYVFa9dCo-16" value="model 1" style="rounded=1;whiteSpace=wrap;html=1;" vertex="1" parent="1">
          <mxGeometry x="200" y="320" width="80" height="40" as="geometry" />
        </mxCell>
        <mxCell id="wvBiB40hRuxFYVFa9dCo-18" style="edgeStyle=orthogonalEdgeStyle;rounded=0;orthogonalLoop=1;jettySize=auto;html=1;" edge="1" parent="1" source="wvBiB40hRuxFYVFa9dCo-17" target="wvBiB40hRuxFYVFa9dCo-16">
          <mxGeometry relative="1" as="geometry" />
        </mxCell>
        <mxCell id="wvBiB40hRuxFYVFa9dCo-17" value="&lt;b&gt;EIS datasets&lt;br&gt;(predict)&lt;br&gt;&lt;/b&gt;" style="rounded=1;whiteSpace=wrap;html=1;fillColor=#fff2cc;strokeColor=#d6b656;" vertex="1" parent="1">
          <mxGeometry x="180" y="240" width="120" height="40" as="geometry" />
        </mxCell>
        <mxCell id="wvBiB40hRuxFYVFa9dCo-19" value="随循环次数增大，不断测量的EIS 曲线" style="shape=callout;whiteSpace=wrap;html=1;perimeter=calloutPerimeter;" vertex="1" parent="1">
          <mxGeometry x="310" y="230" width="170" height="80" as="geometry" />
        </mxCell>
        <mxCell id="wvBiB40hRuxFYVFa9dCo-22" value="" style="edgeStyle=orthogonalEdgeStyle;rounded=0;orthogonalLoop=1;jettySize=auto;html=1;" edge="1" parent="1" source="wvBiB40hRuxFYVFa9dCo-20" target="wvBiB40hRuxFYVFa9dCo-21">
          <mxGeometry relative="1" as="geometry" />
        </mxCell>
        <mxCell id="wvBiB40hRuxFYVFa9dCo-20" value="充满电后，点击按钮，开始发生小的放电及充电" style="rounded=1;whiteSpace=wrap;html=1;" vertex="1" parent="1">
          <mxGeometry x="240" y="410" width="120" height="60" as="geometry" />
        </mxCell>
        <mxCell id="wvBiB40hRuxFYVFa9dCo-24" value="" style="edgeStyle=orthogonalEdgeStyle;rounded=0;orthogonalLoop=1;jettySize=auto;html=1;" edge="1" parent="1" source="wvBiB40hRuxFYVFa9dCo-21" target="wvBiB40hRuxFYVFa9dCo-23">
          <mxGeometry relative="1" as="geometry" />
        </mxCell>
        <mxCell id="wvBiB40hRuxFYVFa9dCo-21" value="获得一小段充放电曲线" style="rounded=1;whiteSpace=wrap;html=1;" vertex="1" parent="1">
          <mxGeometry x="240" y="510" width="120" height="60" as="geometry" />
        </mxCell>
        <mxCell id="wvBiB40hRuxFYVFa9dCo-26" value="" style="edgeStyle=orthogonalEdgeStyle;rounded=0;orthogonalLoop=1;jettySize=auto;html=1;" edge="1" parent="1" source="wvBiB40hRuxFYVFa9dCo-23" target="wvBiB40hRuxFYVFa9dCo-25">
          <mxGeometry relative="1" as="geometry" />
        </mxCell>
        <mxCell id="wvBiB40hRuxFYVFa9dCo-23" value="通过模型获得EIS曲线" style="whiteSpace=wrap;html=1;rounded=1;" vertex="1" parent="1">
          <mxGeometry x="240" y="600" width="120" height="60" as="geometry" />
        </mxCell>
        <mxCell id="wvBiB40hRuxFYVFa9dCo-25" value="通过一条EIS曲线及训练好的模型获得SOH及RUL" style="whiteSpace=wrap;html=1;rounded=1;" vertex="1" parent="1">
          <mxGeometry x="240" y="700" width="120" height="60" as="geometry" />
        </mxCell>
      </root>
    </mxGraphModel>
  </diagram>
</mxfile>
